<svg width="92" height="68" viewBox="0 0 92 68" fill="none" xmlns="http://www.w3.org/2000/svg">
<path d="M89.2938 2.32094C90.9595 3.86935 91.9317 6.00485 91.9965 8.25789C92.0614 10.5109 91.2136 12.6971 89.6396 14.3357L40.6486 65.3415C39.8546 66.1667 38.9005 66.827 37.8425 67.2835C36.7846 67.74 35.6444 67.9833 34.4892 67.9992C33.334 68.015 32.1873 67.8031 31.1169 67.3758C30.0464 66.9485 29.0739 66.3146 28.2568 65.5116L2.32035 40.0086C0.793214 38.3971 -0.0381711 36.2657 0.00134693 34.0633C0.040865 31.861 0.948202 29.7597 2.5322 28.2022C4.1162 26.6447 6.25319 25.7525 8.49296 25.7137C10.7327 25.6748 12.9004 26.4923 14.5393 27.9939L34.1933 47.3081L77.0749 2.66097C78.6496 1.02309 80.8214 0.0671719 83.1127 0.00340655C85.4041 -0.0603588 87.6274 0.773246 89.2938 2.32094Z" fill="#00B05C"/>
</svg>
