<svg width="46" height="46" viewBox="0 0 46 46" fill="none" xmlns="http://www.w3.org/2000/svg">
<path fill-rule="evenodd" clip-rule="evenodd" d="M15.8607 41.9317C17.0091 42.2186 18.2207 41.8322 18.9908 40.9337L31.5284 26.3064L31.5284 3.87506L10.0024 3.87506C8.51276 3.87506 7.23026 4.92641 6.93803 6.38728C6.93803 6.38729 6.93803 6.38726 6.93803 6.38728L3.93803 21.3872C3.55132 23.321 5.03036 25.1251 7.00244 25.1251H18.4034C19.0949 25.1251 19.7303 25.5057 20.0566 26.1154C20.3829 26.7251 20.3471 27.4648 19.9635 28.0402L13.8991 37.1367C13.8991 37.1367 13.8991 37.1366 13.8991 37.1367C12.7005 38.9348 13.6449 41.3778 15.7414 41.9019L15.8607 41.9317C15.8609 41.9318 15.8605 41.9317 15.8607 41.9317ZM35.2784 3.87506L35.2784 25.1251L41.5284 25.1251L41.5284 3.87506H35.2784ZM34.2658 28.8751L21.8381 43.3741C20.1434 45.3513 17.4772 46.2012 14.9507 45.5697L14.8319 45.5399C14.8318 45.5399 14.8321 45.54 14.8319 45.5399C10.2199 44.3865 8.14204 39.0123 10.7788 35.0567L14.8999 28.8751H7.00244C2.66402 28.8751 -0.589935 24.9061 0.260845 20.6519L3.26085 5.65184C3.90364 2.43822 6.72514 0.125057 10.0024 0.125057L43.4034 0.125057C44.439 0.125057 45.2784 0.964523 45.2784 2.00006L45.2784 27.0001C45.2784 27.4974 45.0809 27.9743 44.7293 28.3259C44.3776 28.6776 43.9007 28.8751 43.4034 28.8751L34.2658 28.8751Z" fill="black"/>
</svg>
