<svg width="157" height="24" viewBox="0 0 157 24" fill="none" xmlns="http://www.w3.org/2000/svg">
<path fill-rule="evenodd" clip-rule="evenodd" d="M22.9718 3.34956H6.17387L22.7211 21.7774L20.2035 24L3.77119 5.73913V24H0V0H22.9822L22.9718 3.34956ZM49.6939 2.97391H30.5246V9.74609H44.8363V12.7513H30.5246V21.0261H49.7252V24H26.743V0H49.7252L49.6939 2.97391ZM76.4264 12.7513H57.2258V24H53.5068V0H76.4891L76.4264 12.7513ZM103.305 24H80.1975V0H103.305V24ZM130.017 2.94261H110.816V9.71478H130.017V24H107.035V21.0261H126.235V12.7513H107.055V0H130.038L130.017 2.94261ZM156.99 2.94261H146.825V24H143.064V2.97391H133.663V0H157L156.99 2.94261ZM99.5376 2.97364H83.9619V21.0258H99.5376V2.97364ZM57.2232 2.97364H72.6631V9.74581H57.2232V2.97364Z" fill="white"/>
</svg>
