<svg width="46" height="46" viewBox="0 0 46 46" fill="none" xmlns="http://www.w3.org/2000/svg">
<path fill-rule="evenodd" clip-rule="evenodd" d="M29.5427 3.9684C28.3943 3.68157 27.1828 4.06796 26.4126 4.96649L13.875 19.5937V42.0251H35.401C36.8907 42.0251 38.1732 40.9737 38.4654 39.5129C38.4654 39.5129 38.4654 39.5129 38.4654 39.5129L41.4654 24.5129C41.8521 22.5792 40.3731 20.775 38.401 20.775H27C26.3085 20.775 25.6731 20.3944 25.3469 19.7848C25.0206 19.1751 25.0563 18.4353 25.4399 17.86L31.5044 8.76348C31.5044 8.76345 31.5043 8.76351 31.5044 8.76348C32.7029 6.96532 31.7585 4.52238 29.662 3.99826L29.5427 3.9684C29.5425 3.96835 29.5429 3.96845 29.5427 3.9684ZM10.125 42.0251V20.7751L3.875 20.775V42.0251H10.125ZM11.1376 17.0251L23.5654 2.52603C25.2601 0.548871 27.9263 -0.301057 30.4527 0.330486L30.5715 0.360223C30.5717 0.360267 30.5713 0.360178 30.5715 0.360223C35.1836 1.51362 37.2614 6.88787 34.6246 10.8434L30.5035 17.025H38.401C42.7394 17.025 45.9934 20.994 45.1426 25.2483L42.1426 40.2483C41.4998 43.4619 38.6783 45.7751 35.401 45.7751H2C0.964466 45.7751 0.125 44.9356 0.125 43.9001V18.9C0.125 18.4028 0.322545 17.9258 0.674178 17.5742C1.02581 17.2226 1.50273 17.025 2.00001 17.025L11.1376 17.0251Z" fill="black"/>
</svg>
